<svg xmlns="http://www.w3.org/2000/svg" viewBox="0 0 64 64" role="img" aria-label="نشان موتوسنج">
  <defs>
    <linearGradient id="lgShield" x1="0" y1="0" x2="1" y2="1">
      <stop offset="0" stop-color="#ff3d48"/>
      <stop offset="1" stop-color="#b8121e"/>
    </linearGradient>
  </defs>
  <!-- سپر -->
  <path d="M32 3 58 12v22c0 14-11 23.5-26 27C17 57.5 6 48 6 34V12L32 3Z" fill="url(#lgShield)"/>
  <path d="M32 8.5 53 15.7V34c0 11.4-8.8 19.2-21 22.3C19.8 53.2 11 45.4 11 34V15.7L32 8.5Z" fill="#0f0f12"/>
  <!-- عقربه‌ی درجه (سنجش) -->
  <path d="M18.5 38a14.5 14.5 0 0 1 27 0" fill="none" stroke="#ff3d48" stroke-width="3.2" stroke-linecap="round"/>
  <circle cx="32" cy="38" r="3.2" fill="#ff3d48"/>
  <path d="M32 38 41 25.5" stroke="#f4f4f5" stroke-width="2.8" stroke-linecap="round"/>
  <!-- تیک تأیید -->
  <path d="M25 45.5l4.5 4.5L40 39.5" fill="none" stroke="#f4f4f5" stroke-width="3" stroke-linecap="round" stroke-linejoin="round" opacity=".9"/>
</svg>
